- 
http://www.Speed.Cd
 
http://www.Speed.Cd       the fast  and The Hottest Private Tracker on the net

Please Seed back to make the speed Faster!!
 ............ NFO .............
-[URL=http://img201.imageshack.us/i/thetwilightsagabreakingy.jpg/][IMG]http://img201.imageshack.us/img201/6654/thetwilightsagabreakingy.jpg[/IMG][/URL]


MRFIXIT is proud to present:   The Twilight Saga Breaking Dawn Part 2

Source:  The Twilight Saga Breaking Dawn Part 2 2012 NORDiC PAL DVDR-iNCOGNiTO

[URL=http://img204.imageshack.us/i/27867621.png/][IMG]http://img204.imageshack.us/img204/2294/27867621.png[/IMG][/URL]

Complete name                            : C:The Twilight Saga Breaking Dawn - Part 2-Dvdrip-H264-MRFIXIT.avi
Format                                   : AVI
Format/Info                              : Audio Video Interleave
Format profile                           : OpenDML
Format settings                          : rec
File size                                : 740 MiB
Duration                                 : 1h 50mn
Overall bit rate                         : 937 Kbps
Writing application                      : AVI-Mux GUI 1.17.8.3, Feb 16 201019:42:50

[URL=http://img713.imageshack.us/i/32031619.png/][IMG]http://img713.imageshack.us/img713/512/32031619.png[/IMG][/URL]

ID                                       : 0
Format                                   : AVC
Format/Info                              : Advanced Video Codec
Format profile                           : High@L3.0
Format settings, CABAC                   : Yes
Format settings, ReFrames                : 4 frames
Codec ID                                 : H264
Duration                                 : 1h 50mn
Bit rate                                 : 800 Kbps
Width                                    : 720 pixels
Height                                   : 304 pixels
Display aspect ratio                     : 2.35:1
Frame rate                               : 25.000 fps
Color space                              : YUV
Chroma subsampling                       : 4:2:0
Bit depth                                : 8 bits
Scan type                                : Progressive
Bits/(Pixel*Frame)                       : 0.146
Stream size                              : 632 MiB (85%)
Writing library                          : x264 core 125 r2200bm 999b753
Encoding settings                        : cabac=1 / ref=3 / deblock=1:0:0 / analyse=0x3:0x113 / me=hex / subme=7 / psy=1 / psy_rd=1.00:0.00 / mixed_ref=1 / me_range=16 / chroma_me=1 / trellis=1 / 8x8dct=1 / cqm=0 / deadzone=21,11 / fast_pskip=1 / chroma_qp_offset=-2 / threads=9 / lookahead_threads=1 / sliced_threads=0 / nr=0 / decimate=1 / interlaced=0 / bluray_compat=0 / constrained_intra=0 / bframes=3 / b_pyramid=2 / b_adapt=1 / b_bias=0 / direct=1 / weightb=1 / open_gop=0 / weightp=2 / keyint=250 / keyint_min=25 / scenecut=40 / intra_refresh=0 / rc_lookahead=40 / rc=2pass / mbtree=1 / bitrate=800 / ratetol=1.0 / qcomp=0.60 / qpmin=0 / qpmax=69 / qpstep=4 / cplxblur=20.0 / qblur=0.5 / ip_ratio=1.40 / aq=1:1.00

[URL=http://img684.imageshack.us/i/14258198.png/][IMG]http://img684.imageshack.us/img684/6473/14258198.png[/IMG][/URL]

ID                                       : 1
Format                                   : MPEG Audio
Format version                           : Version 1
Format profile                           : Layer 3
Mode                                     : Joint stereo
Mode extension                           : MS Stereo
Codec ID                                 : 55
Codec ID/Hint                            : MP3
Duration                                 : 1h 50mn
Bit rate mode                            : Constant
Bit rate                                 : 128 Kbps
Channel(s)                               : 2 channels
Sampling rate                            : 48.0 KHz
Compression mode                         : Lossy
Stream size                              : 101 MiB (14%)
Alignment                                : Aligned on interleaves
Interleave, duration                     : 24 ms (0.60 video frame)
Interleave, preload duration             : 912 ms
Writing library                          : LAME3.99.5      

[URL=http://img36.imageshack.us/i/19805875.png/][IMG]http://img36.imageshack.us/img36/52/19805875.png[/IMG][/URL]
 
http://www.imdb.co.uk/title/tt1673434/

[URL=http://img225.imageshack.us/i/39945039.png/][IMG]http://img225.imageshack.us/img225/9529/39945039.png[/IMG][/URL]

After the birth of Renesmee, the Cullens gather other vampire clans in order to protect the child from a false allegation that puts the family in front of the Volturi.  

[URL=http://img405.imageshack.us/i/70975872.png/][IMG]http://img405.imageshack.us/img405/6001/70975872.png[/IMG][/URL]

Kristen Stewart
Robert Pattinson
Taylor Lautner
Peter Facinelli
Elizabeth Reaser
Ashley Greene
Jackson Rathbone
Kellan Lutz
Nikki Reed
Billy Burke
Chaske Spencer
Mackenzie Foy
Maggie Grace
Jamie Campbell Bower
Christopher Heyerdahl

[URL=http://img819.imageshack.us/i/94723758.png/][IMG]http://img819.imageshack.us/img819/9863/94723758.png[/IMG][/URL]

[URL=http://img35.imageshack.us/i/19223896.jpg/][IMG]http://img35.imageshack.us/img35/3577/19223896.jpg[/IMG][/URL]
[URL=http://img28.imageshack.us/i/34470789.jpg/][IMG]http://img28.imageshack.us/img28/3476/34470789.jpg[/IMG][/URL]
[URL=http://img5.imageshack.us/i/35942679.jpg/][IMG]http://img5.imageshack.us/img5/3903/35942679.jpg[/IMG][/URL]
[URL=http://img33.imageshack.us/i/59265373.jpg/][IMG]http://img33.imageshack.us/img33/8933/59265373.jpg[/IMG][/URL]
[URL=http://img802.imageshack.us/i/93379632.jpg/][IMG]http://img802.imageshack.us/img802/426/93379632.jpg[/IMG][/URL]
[URL=http://img109.imageshack.us/i/53122596.jpg/][IMG]http://img109.imageshack.us/img109/2071/53122596.jpg[/IMG][/URL]

[URL=http://img834.imageshack.us/i/greets3.png/][IMG]http://img834.imageshack.us/img834/3478/greets3.png[/IMG][/URL]

voltage, DQ1, LEGION, PRESTiGE, 26k, RemixHD, UNiQUE, Legend-Rg, DiNGiE, Relentle$$,
Bigguy, paranoid53, HIVE-CM8, TRINITY, Rx, INSPiRAL, HOPE, tommiecook, Wayne, Seedling, Quagmire

Contact [color=red]iammrfixit@hushmail.me[/color]